<?xml version="1.0" standalone="no"?>
<!DOCTYPE svg PUBLIC "-//W3C//DTD SVG 20010904//EN"
 "http://www.w3.org/TR/2001/REC-SVG-20010904/DTD/svg10.dtd">
<svg version="1.0" xmlns="http://www.w3.org/2000/svg"
 width="1050.000000pt" height="1050.000000pt" viewBox="0 0 1050.000000 1050.000000"
 preserveAspectRatio="xMidYMid meet">
<metadata>
Created by potrace 1.14, written by Peter Selinger 2001-2017
</metadata>
<g transform="translate(0.000000,1050.000000) scale(0.100000,-0.100000)"
fill="#000000" stroke="none">
<path d="M0 5250 l0 -5250 5250 0 5250 0 0 5250 0 5250 -5250 0 -5250 0 0
-5250z m4038 3547 c101 -35 171 -79 264 -166 196 -183 367 -457 491 -786 49
-129 137 -405 138 -433 1 -20 4 -13 20 48 l12 45 13 -45 c7 -25 25 -58 38 -75
l25 -30 1 28 c0 37 20 116 31 123 5 3 6 -2 3 -10 -6 -15 19 -126 35 -153 6
-12 26 12 81 97 l73 112 19 -24 c10 -12 44 -63 75 -112 l57 -89 18 39 c9 21
20 64 24 94 7 52 8 53 16 25 5 -16 13 -52 17 -80 l7 -50 32 49 c18 28 32 58
32 68 0 36 18 17 26 -29 l9 -47 29 104 c39 143 124 381 186 521 95 215 233
422 385 575 166 168 295 228 490 229 100 0 115 -2 165 -28 30 -15 48 -26 40
-24 -8 3 -26 7 -40 11 -15 4 -9 -2 15 -15 80 -42 133 -110 155 -196 l10 -38
-5 45 c-3 25 -17 68 -31 95 l-25 50 46 -45 c120 -117 265 -395 282 -541 7 -55
-11 -115 -38 -130 -26 -13 -67 11 -73 44 -35 172 -71 250 -133 288 -144 89
-406 -92 -561 -389 -88 -167 -145 -337 -197 -584 l-23 -109 30 7 c27 5 30 4
23 -12 -20 -51 -20 -53 27 -47 41 6 42 5 27 -13 -36 -43 -35 -47 15 -42 52 6
55 2 25 -36 l-20 -26 28 0 c15 0 44 4 62 10 19 5 36 8 38 6 2 -2 -8 -18 -22
-35 l-27 -31 59 0 c39 0 72 7 98 20 49 25 48 25 43 -5 -5 -22 -3 -25 16 -19
37 11 70 31 91 54 59 66 267 190 318 190 38 0 221 41 312 71 51 16 140 54 197
83 125 66 204 90 259 81 104 -18 160 -132 137 -281 -5 -38 -10 -78 -10 -88 1
-10 -6 -33 -16 -50 -9 -17 -15 -37 -14 -43 2 -7 -3 -13 -11 -13 -15 0 -57 -54
-106 -139 -24 -40 -29 -56 -21 -66 8 -10 6 -15 -12 -20 -13 -4 -84 -67 -158
-140 -223 -218 -329 -276 -576 -314 -66 -10 -143 -28 -172 -41 -78 -34 -193
-165 -222 -255 -10 -30 -15 -35 -19 -22 -6 15 -10 13 -24 -15 -9 -18 -23 -41
-29 -51 -11 -14 -10 -23 4 -47 19 -33 13 -38 -19 -15 -21 15 -22 14 -32 -22
-40 -149 -44 -260 -23 -598 15 -226 6 -416 -24 -563 -19 -95 -36 -135 -30 -72
16 145 17 199 7 216 -8 15 -10 8 -11 -36 -1 -99 -35 -233 -90 -351 -29 -62
-63 -139 -76 -173 -21 -54 -23 -56 -18 -21 4 22 24 108 45 190 51 204 52 207
31 150 -11 -27 -40 -97 -65 -155 -54 -124 -99 -244 -133 -355 l-24 -80 6 113
c3 61 3 112 0 112 -9 0 -90 -167 -119 -245 -14 -38 -29 -79 -33 -90 -6 -15 -9
-8 -14 30 l-5 50 -23 -66 c-12 -36 -29 -124 -37 -195 -8 -71 -21 -155 -30
-187 -16 -61 -58 -151 -75 -162 -13 -8 -13 -11 10 80 11 43 20 94 19 114 0 30
-4 22 -24 -45 -13 -44 -44 -120 -68 -170 -50 -99 -80 -187 -102 -290 l-15 -69
4 125 c3 69 7 134 11 145 12 39 -48 -81 -68 -135 -17 -44 -22 -92 -27 -245 -7
-170 -21 -278 -39 -289 -3 -2 -7 53 -7 122 -1 72 -8 151 -16 182 l-14 55 -13
-133 c-17 -171 -10 -530 13 -656 9 -49 15 -91 13 -93 -13 -12 -82 355 -95 502
l-8 90 -8 -140 c-5 -77 -6 -220 -4 -318 3 -98 4 -176 2 -174 -9 9 -65 366 -71
460 l-8 102 -6 -100 c-15 -234 -9 -519 16 -755 l4 -45 -10 40 c-14 57 -37 214
-46 320 l-7 90 -8 -90 c-9 -106 -49 -368 -55 -361 -2 2 1 37 7 77 15 105 24
509 14 674 l-8 140 -8 -100 c-7 -89 -46 -342 -67 -435 -4 -19 -5 58 -3 171 3
113 1 259 -4 325 l-8 119 -8 -94 c-11 -138 -81 -511 -94 -498 -2 2 3 41 11 88
35 200 38 535 7 744 l-8 50 -14 -75 c-7 -41 -13 -124 -13 -184 1 -69 -2 -105
-9 -98 -18 18 -40 185 -35 272 2 47 0 117 -5 155 -9 68 -61 219 -78 230 -5 3
-7 -51 -5 -122 l5 -128 -14 65 c-21 97 -52 183 -106 296 -27 55 -58 134 -69
175 -28 103 -28 35 -1 -80 11 -46 18 -86 16 -89 -10 -9 -47 65 -71 140 -13 43
-29 127 -35 190 -12 121 -21 166 -48 238 l-17 45 -5 -50 -5 -50 -33 90 c-18
50 -55 133 -82 185 l-50 95 5 -120 5 -120 -28 95 c-35 114 -73 215 -141 372
-28 64 -53 129 -57 143 -3 14 -8 24 -11 21 -2 -2 7 -39 20 -83 28 -88 81 -322
74 -329 -2 -2 -10 15 -17 38 -7 24 -39 99 -71 168 -63 135 -84 210 -99 347 -8
85 -9 83 -6 -47 2 -74 7 -144 10 -155 7 -18 6 -18 -4 -3 -21 34 -50 199 -60
341 -9 132 -6 232 16 582 7 116 -5 249 -32 343 -14 51 -15 52 -37 37 -30 -21
-44 -19 -24 3 19 21 22 57 7 67 -6 3 -19 23 -30 43 -14 28 -19 32 -20 17 -1
-11 -9 1 -20 28 -21 56 -83 139 -144 195 -55 51 -124 76 -265 96 -219 32 -346
102 -556 307 -77 75 -150 139 -163 143 -18 6 -21 11 -12 22 14 16 2 37 -99
184 -37 54 -67 108 -68 125 -16 165 -15 223 5 267 36 82 116 121 203 98 24 -6
109 -42 189 -80 157 -75 264 -110 429 -139 150 -27 286 -96 376 -191 30 -32
62 -52 101 -64 19 -6 21 -3 16 19 -5 30 -6 30 43 5 26 -13 59 -20 99 -20 l59
0 -21 23 c-32 34 -29 47 10 36 18 -5 46 -9 61 -9 l28 0 -20 29 c-12 16 -21 31
-21 34 0 2 21 2 47 -1 l47 -5 -17 26 c-24 37 -22 40 19 34 38 -6 39 -4 19 47
-7 16 -4 17 22 12 l31 -7 -15 78 c-50 274 -158 563 -276 738 -57 86 -181 204
-252 242 -197 104 -307 38 -360 -216 -20 -97 -59 -121 -106 -65 -24 29 -16
138 16 224 77 211 212 409 334 493 25 17 70 42 101 54 49 21 67 23 160 20 79
-3 123 -11 178 -30z m1389 -6822 c6 -25 7 -45 2 -45 -11 0 -16 11 -24 53 -10
53 9 47 22 -8z"/>
<path d="M3675 8771 c-68 -32 -136 -122 -134 -178 0 -10 8 1 18 25 25 63 65
108 124 142 58 33 53 40 -8 11z"/>
<path d="M3790 8734 c-55 -24 -99 -73 -115 -128 -21 -69 -18 -93 3 -28 29 89
85 140 177 163 l30 7 -30 1 c-16 0 -46 -7 -65 -15z"/>
<path d="M6738 8732 c77 -28 126 -79 154 -162 6 -20 7 -18 3 10 -13 86 -84
157 -166 166 l-44 5 53 -19z"/>
<path d="M3931 8622 c-42 -21 -87 -76 -97 -117 -5 -25 -2 -22 18 15 38 70 90
101 184 110 l79 7 -75 2 c-54 1 -85 -4 -109 -17z"/>
<path d="M6520 8630 c105 -10 155 -40 194 -115 9 -16 16 -24 16 -16 0 8 -11
33 -25 57 -35 60 -90 84 -186 83 l-74 -2 75 -7z"/>
<path d="M4094 8471 c-35 -16 -104 -83 -104 -101 0 -4 22 15 49 40 55 54 121
76 199 66 32 -4 41 -3 27 3 -35 16 -127 12 -171 -8z"/>
<path d="M6295 8480 c-14 -7 -6 -8 32 -4 77 9 151 -16 203 -68 43 -43 43 -43
24 -9 -33 57 -86 85 -168 88 -39 2 -80 -2 -91 -7z"/>
<path d="M4212 8290 c-23 -12 -52 -36 -64 -54 l-21 -31 29 26 c65 59 144 77
249 56 33 -6 37 -5 20 5 -11 6 -53 13 -95 15 -62 4 -82 1 -118 -17z"/>
<path d="M6150 8294 c-23 -9 -27 -13 -10 -10 132 25 191 14 258 -48 25 -23 40
-32 34 -21 -16 31 -54 63 -94 80 -46 19 -141 18 -188 -1z"/>
<path d="M4326 8126 c-22 -8 -53 -29 -70 -46 l-31 -32 54 34 c50 30 61 33 135
33 45 0 95 -3 111 -7 28 -7 28 -6 -5 9 -50 22 -146 27 -194 9z"/>
<path d="M6082 8130 c-56 -13 -46 -18 27 -12 94 6 132 -3 188 -45 l48 -36 -30
33 c-56 61 -139 82 -233 60z"/>
<path d="M4374 7935 c-17 -9 -44 -31 -60 -48 -24 -26 -24 -28 -4 -11 51 43 92
58 165 59 39 0 86 -3 105 -7 30 -7 32 -6 15 4 -33 20 -185 22 -221 3z"/>
<path d="M5980 7934 c-24 -10 -27 -13 -10 -9 128 24 200 14 264 -37 37 -30 38
-30 21 -5 -27 43 -91 67 -171 66 -38 0 -85 -7 -104 -15z"/>
<path d="M4440 7789 c-29 -12 -68 -46 -82 -73 -6 -10 6 -3 26 17 22 22 50 39
72 43 56 10 155 -1 207 -24 26 -12 47 -19 47 -16 0 3 -25 17 -57 31 -62 29
-171 40 -213 22z"/>
<path d="M5941 7780 c-30 -11 -60 -25 -65 -30 -6 -6 16 -1 48 10 71 24 174 27
216 5 15 -8 40 -29 55 -47 l27 -33 -20 35 c-45 77 -148 100 -261 60z"/>
<path d="M4484 7611 c-28 -17 -84 -79 -84 -93 0 -3 19 14 43 37 69 69 143 78
282 31 11 -3 -2 5 -30 19 -64 32 -164 35 -211 6z"/>
<path d="M5866 7605 c-32 -13 -63 -28 -69 -34 -5 -5 17 1 49 14 126 50 207 42
276 -28 40 -41 41 -41 22 -9 -46 81 -162 105 -278 57z"/>
<path d="M4580 7413 c0 -34 -5 -85 -11 -114 -9 -43 -13 -49 -24 -38 -7 8 -20
37 -28 64 l-15 50 -7 -38 c-4 -22 -5 -63 -2 -93 3 -30 4 -54 2 -54 -2 0 -12
15 -23 33 -23 40 -91 94 -77 61 17 -39 53 -150 59 -181 7 -42 -8 -43 -57 -2
-20 17 -37 26 -37 21 0 -23 41 -140 60 -169 28 -47 4 -43 -55 9 -42 37 -47 39
-40 18 4 -14 24 -60 46 -103 21 -43 39 -80 39 -83 0 -9 -42 18 -83 54 l-41 37
30 -53 c16 -28 84 -130 151 -225 208 -294 262 -418 270 -627 6 -149 -16 -298
-72 -485 -79 -267 -78 -259 -78 -420 -1 -115 6 -192 27 -330 22 -144 26 -199
21 -275 l-6 -95 29 65 c16 36 77 160 137 276 96 186 109 218 113 272 5 71 -17
180 -59 297 -16 43 -25 75 -21 70 5 -6 26 -31 47 -58 21 -26 39 -46 41 -44 2
1 -6 31 -16 65 -23 73 -60 314 -60 389 l0 52 39 -42 40 -42 -11 45 c-5 25 -7
76 -4 114 6 82 36 216 48 216 4 0 8 -3 8 -7 0 -5 16 -26 36 -48 l35 -40 -6 50
c-3 28 -1 84 5 125 11 81 58 240 70 240 4 0 10 -26 12 -58 10 -103 58 -224 58
-144 0 70 84 353 100 335 14 -15 61 -171 80 -264 10 -50 21 -93 23 -95 5 -5
41 119 54 186 l9 45 27 -83 c35 -107 51 -212 43 -282 l-6 -55 29 31 c16 18 33
40 39 50 6 11 13 16 17 13 3 -4 15 -51 27 -105 14 -72 19 -121 15 -178 l-5
-78 32 31 c18 17 34 31 37 31 17 0 -31 -335 -62 -435 -10 -32 -17 -61 -15 -62
4 -4 52 50 78 87 13 18 11 6 -8 -45 -37 -102 -64 -222 -64 -285 1 -69 22 -121
133 -328 48 -89 101 -194 118 -234 l30 -73 -6 90 c-5 70 0 129 20 265 33 217
41 380 26 480 -7 41 -31 140 -55 220 -76 250 -91 335 -91 505 0 255 39 349
285 694 54 77 114 166 131 198 l33 58 -41 -37 c-37 -32 -83 -64 -83 -56 0 2
20 43 45 93 25 49 45 95 45 103 0 8 -20 -4 -46 -27 -41 -36 -64 -49 -64 -37 0
2 13 32 29 68 16 35 33 82 37 103 l7 40 -37 -33 c-58 -50 -66 -45 -50 34 8 37
23 87 34 112 11 25 19 47 17 48 -5 6 -70 -58 -88 -85 -14 -22 -15 -19 -11 47
2 39 -1 78 -7 88 -9 17 -10 17 -11 2 0 -25 -31 -98 -40 -98 -12 0 -30 93 -31
163 l-1 62 -51 -105 c-44 -90 -58 -108 -92 -127 -39 -22 -142 -49 -151 -40 -2
2 13 16 35 30 21 14 49 40 62 58 24 34 16 32 -37 -7 -38 -30 -125 -67 -188
-83 -73 -18 -138 -55 -203 -115 l-60 -55 -48 49 c-54 55 -158 114 -220 126
-52 9 -116 37 -168 72 -68 46 -72 47 -43 9 16 -20 44 -46 63 -58 19 -12 32
-23 29 -26 -11 -11 -117 20 -158 46 -37 23 -49 39 -67 87 -12 33 -33 77 -46
99 l-25 40 0 -62z"/>
<path d="M3958 6103 c32 -45 28 -47 -25 -16 l-48 28 22 -31 c39 -54 50 -59
137 -59 104 -1 132 -15 185 -99 22 -35 45 -68 52 -71 6 -4 -15 -21 -50 -41
-75 -42 -123 -44 -175 -9 l-36 24 15 -23 c40 -60 112 -64 221 -10 81 40 95 52
72 65 -8 5 -41 49 -72 99 -59 92 -101 128 -170 144 -25 6 -28 5 -17 -7 10 -12
0 -11 -50 4 -33 10 -66 22 -72 26 -6 4 -1 -7 11 -24z"/>
<path d="M6522 6105 c-49 -17 -62 -19 -58 -8 7 17 -16 12 -82 -19 -34 -16 -54
-38 -107 -118 -36 -54 -70 -100 -77 -102 -6 -2 -9 -9 -5 -15 10 -16 148 -81
187 -88 41 -7 95 17 119 53 15 24 15 24 -24 -2 -52 -35 -96 -34 -171 6 l-61
32 33 45 c93 129 125 148 234 135 56 -6 60 -5 85 22 15 16 31 37 37 47 8 16 2
14 -36 -8 -25 -15 -46 -22 -46 -17 0 6 4 14 10 17 9 5 35 46 28 44 -2 -1 -31
-11 -66 -24z"/>
<path d="M4905 4401 c-25 -11 -58 -47 -54 -59 2 -5 24 -25 49 -44 30 -23 49
-47 58 -73 17 -53 42 -78 137 -140 44 -28 85 -58 91 -66 7 -8 13 -48 16 -90 3
-63 8 -83 31 -118 24 -36 31 -40 43 -30 33 27 54 87 54 151 0 78 12 96 87 139
82 47 132 96 158 155 21 47 68 94 94 94 19 0 12 36 -13 59 -39 37 -80 36 -202
-3 -152 -49 -230 -50 -374 -1 -105 35 -139 40 -175 26z"/>
</g>
</svg>
